<?xml version="1.0" encoding="utf-8"?>
<!-- Generator: Adobe Illustrator 22.0.1, SVG Export Plug-In . SVG Version: 6.00 Build 0)  -->
<svg version="1.1" id="Layer_1" xmlns="http://www.w3.org/2000/svg" xmlns:xlink="http://www.w3.org/1999/xlink" x="0px" y="0px"
	 viewBox="0 0 101.7 94.2" style="enable-background:new 0 0 101.7 94.2;" xml:space="preserve">
<style type="text/css">
	.st0{fill:#FFFFFF;}
</style>
<title>Asset 8</title>
<g id="Layer_2_1_">
	<g id="Layer_1-2">
		<polygon class="st0" points="30.2,51.6 36.8,48 36.5,0 18.8,0.8 18,55.2 28.4,55.3 		"/>
		<polygon class="st0" points="24.5,63.2 26.9,58.4 15.7,58.2 16.5,4.1 16.2,4.1 11,4.3 9.8,59.7 1.2,69 0.4,87.8 23,87.7 		"/>
		<polygon class="st0" points="44.5,43.9 44,3.2 39.1,3.3 38.8,3.3 39.2,46.8 		"/>
		<path class="st0" d="M27.8,64l-1.5,23.5l42.6,0.1l0.3-13l1.9,0.1v-6.6l2.5-2.8l2.3,2.6l-0.1,7l1.8,0.1l0.3,12.5l23.8,0.1L101.1,64
			l-16.5-9.6l-37-8l-14.4,7.4L27.8,64z M97.7,68.3l1.7,2.5v6.3l-3.2,0.2l-0.1-6.6L97.7,68.3z M91,67.4l1.8,2.6l0.2,6.8l-3.9,0.1
			L89,70.1L91,67.4z M83.1,66.8l1.8,2.8l-0.2,7H81l-0.2-7.3L83.1,66.8z M61.4,67l2.3-2.7l2.1,2.6l0.1,8.4l-4.8-0.1L61.4,67z
			 M49.9,65.6l2.8-2.9l2.3,3l-0.2,8.8l-5-0.2L49.9,65.6z M38.4,64.3l2.8-3.3l2.8,3.6l-0.2,9.3l-5.6-0.2L38.4,64.3z"/>
		<rect y="90.9" class="st0" width="101.7" height="3.3"/>
	</g>
</g>
</svg>
